<?xml version="1.0" encoding="UTF-8"?>
<svg id="Layer_1" data-name="Layer 1" xmlns="http://www.w3.org/2000/svg" viewBox="0 0 500 500">
  <defs>
    <style>
      .cls-1 {
        fill: #209cee;
      }

      .cls-1, .cls-2 {
        stroke-width: 0px;
      }

      .cls-2 {
        fill: #fff;
      }
    </style>
  </defs>
  <rect class="cls-1" x="0" y="0" width="500" height="500" rx="40" ry="40"/>
  <g>
    <path class="cls-2" d="M229,138.48h-91.41v253.71h-37.3v-253.71H9.08v-30.66h219.92v30.66Z"/>
    <path class="cls-2" d="M271.19,392.19V107.81h80.27c24.74,0,46.61,5.47,65.62,16.41,19.01,10.94,33.69,26.5,44.04,46.68,10.35,20.18,15.59,43.36,15.72,69.53v18.16c0,26.83-5.18,50.33-15.53,70.51-10.35,20.18-25.13,35.68-44.34,46.48-19.21,10.81-41.57,16.34-67.09,16.6h-78.71ZM308.69,138.48v223.05h39.45c28.91,0,51.4-8.99,67.48-26.97,16.08-17.98,24.12-43.59,24.12-76.83v-16.62c0-32.32-7.59-57.44-22.75-75.36-15.17-17.92-36.69-27.01-64.55-27.27h-43.75Z"/>
  </g>
</svg>